<svg id="Layer_1" enable-background="new 0 0 512 512" height="512" viewBox="0 0 512 512" width="512" xmlns="http://www.w3.org/2000/svg"><path clip-rule="evenodd" d="m126.159.003h259.682c67.068 0 121.947 54.879 121.947 121.946v268.101c0 67.068-54.879 121.946-121.947 121.946h-259.682c-67.068 0-121.946-54.879-121.946-121.946v-268.101c0-67.067 54.878-121.946 121.946-121.946z" fill="#f34235" fill-rule="evenodd"/><path d="m229.822 109.109c19.105 0 36.368 7.739 48.869 20.239 12.529 12.501 20.268 29.792 20.268 48.87 0 19.077-7.739 36.368-20.268 48.869-12.501 12.529-29.764 20.239-48.869 20.239-19.077 0-36.369-7.71-48.869-20.239-12.501-12.501-20.239-29.792-20.239-48.869s7.739-36.369 20.239-48.87 29.792-20.239 48.869-20.239zm0 151.852c28.516 0 54.453 11.679 73.247 30.472s30.444 44.702 30.444 73.219v34.101c0 2.296-1.842 4.167-4.167 4.167h-199.048c-2.296 0-4.167-1.871-4.167-4.167v-34.101c0-28.517 11.679-54.425 30.472-73.219s44.702-30.472 73.219-30.472zm96.803-45.411 19.417 19.417 19.417-19.417c1.644-1.644 4.28-1.644 5.896 0l13.295 13.294c1.644 1.616 1.644 4.252 0 5.896l-19.417 19.417 19.417 19.417c1.644 1.644 1.644 4.28 0 5.896l-13.295 13.294c-1.616 1.644-4.252 1.644-5.896 0l-19.417-19.417-19.417 19.417c-1.644 1.644-4.28 1.644-5.896 0l-13.294-13.294c-1.616-1.616-1.616-4.252 0-5.896l19.417-19.417-19.417-19.417c-1.616-1.644-1.616-4.281 0-5.896l13.294-13.294c1.616-1.644 4.252-1.644 5.896 0z" fill="#fff"/></svg>